<svg id="Calque_1" data-name="Calque 1" xmlns="http://www.w3.org/2000/svg" viewBox="0 0 352.22 116.43"><defs><style>.cls-1{fill:#1d1d1b;}</style></defs><path class="cls-1" d="M33.18,109.69a17.41,17.41,0,0,1-7,1.33c-6.91,0-12-5.12-12-14,0-8,4.39-14.06,12-14.06a15.93,15.93,0,0,1,7.07,1.46V74.58a27.92,27.92,0,0,0-7.48-1C10.74,73.54,2,84,2,97.52c0,14.39,8.62,23,21.87,23a31.68,31.68,0,0,0,9.35-1.33Z" transform="translate(-1.96 -4.49)"/><path class="cls-1" d="M149.73,73.45c-12.28,0-21.46,8.62-21.46,23.82,0,14.23,8.22,22.73,19.79,23.28v-9c-4.13-.79-6.64-5.21-7.37-10.91H170a28,28,0,0,0,.33-4.79V95C169.68,82.19,161.87,73.45,149.73,73.45Zm8.07,18.86h-17c.9-5.32,3.47-10,8.64-10,4.82,0,7.41,4.61,8.31,10Z" transform="translate(-1.96 -4.49)"/><path class="cls-1" d="M270.75,73.45c-12.28,0-21.46,8.62-21.46,23.82,0,14.23,8.22,22.73,19.78,23.28v-9c-4.12-.79-6.63-5.21-7.36-10.91H291a28.13,28.13,0,0,0,.32-4.79V95C290.69,82.19,282.89,73.45,270.75,73.45Zm8.07,18.86h-17c.9-5.32,3.48-10,8.64-10,4.83,0,7.42,4.61,8.32,10Z" transform="translate(-1.96 -4.49)"/><path class="cls-1" d="M62.8,120.89h0Z" transform="translate(-1.96 -4.49)"/><path class="cls-1" d="M54.73,61C48,58.89,44.25,52.39,44.31,42.43H73.82a6.64,6.64,0,0,0,.07-1.25C73.89,33.13,70.6,23,59,23c-9.59,0-17.28,7.62-17.28,21.23,0,9.65,4.92,17,13,19.09Zm3.93-36C69.21,25,71.11,35.76,71,40.16H44.61C45.34,33.64,49.51,25,58.66,25Z" transform="translate(-1.96 -4.49)"/><rect class="cls-1" x="327.42" y="106.9" width="24.8" height="9.21"/><path class="cls-1" d="M233.87,92.39c-5.2-2.19-6.91-3.49-6.91-6s1.95-4.31,5.61-4.31a18.61,18.61,0,0,1,8.53,2.36V75a26.21,26.21,0,0,0-8.94-1.52c-10.08,0-16.58,6.18-16.58,14.31,0,5,3.09,9.75,11.54,13.17,5,2.11,6.51,3.58,6.51,6.34s-2,4.55-6.26,4.55a23.83,23.83,0,0,1-10.57-3v9.8a28.76,28.76,0,0,0,10.48,1.91c11.3,0,17.81-5.69,17.81-14.31C245.09,100,241.51,95.56,233.87,92.39Z" transform="translate(-1.96 -4.49)"/><path class="cls-1" d="M312.2,92.39c-5.2-2.19-6.9-3.49-6.9-6s1.95-4.31,5.6-4.31a18.61,18.61,0,0,1,8.54,2.36V75a26.21,26.21,0,0,0-8.94-1.52c-10.08,0-16.59,6.18-16.59,14.31,0,5,3.09,9.75,11.55,13.17,5,2.11,6.5,3.58,6.5,6.34s-2,4.55-6.26,4.55a23.83,23.83,0,0,1-10.57-3v9.8a28.86,28.86,0,0,0,10.49,1.91c11.3,0,17.8-5.69,17.8-14.31C323.42,100,319.85,95.56,312.2,92.39Z" transform="translate(-1.96 -4.49)"/><path class="cls-1" d="M93.15,41.14c-5.42-2.27-8.35-4.39-8.35-8.85,0-3.81,3.22-7.47,8.57-7.47a12.57,12.57,0,0,1,7.25,2.49V24.49a14.21,14.21,0,0,0-7-1.8c-7.25,0-11.42,4.84-11.42,10.25,0,4.69,3.44,8,9.73,10.47,5.79,2.35,8.64,5,8.64,9.67,0,5.34-4.9,8.42-9.88,8.42a18.12,18.12,0,0,1-8.49-2.79v2.86a17.51,17.51,0,0,0,8.34,2c7.25,0,12.67-4.17,12.67-11C103.18,46.63,99.37,43.63,93.15,41.14Z" transform="translate(-1.96 -4.49)"/><path class="cls-1" d="M212.66,106.18v-14h-12V102.6c0,5.12-3.5,8.46-7.4,8.46-5,0-6.91-4.31-6.91-11.14V74.72h-12v27c0,13.58,5.85,19.18,14.47,19.18a18.84,18.84,0,0,0,13-4.44H202v4.15h10.65Z" transform="translate(-1.96 -4.49)"/><path class="cls-1" d="M111.83,75.49A21.22,21.22,0,0,0,103,73.67l-.49,0v8.86h.25c6.18,0,8.7,7.56,8.7,14.63,0,8.06-3.09,14.81-8.78,14.81-5.86,0-9-6.67-9-14.72H81.53c0,.08,0,.16,0,.24,0,14.72,8.79,23.34,21,23.34h0c4.12,0,7.68-1.54,9.43-3.79h.25v3.55H124V4.49h-12v71Z" transform="translate(-1.96 -4.49)"/><path class="cls-1" d="M101.35,106.91" transform="translate(-1.96 -4.49)"/><path class="cls-1" d="M58.85,111.75h-.07c-5.86,0-9-6.67-9-14.73,0-6.91,2.36-14.71,9-14.71,5.58,0,8.17,6.18,8.62,12.59H79.69C79,82.15,71.22,73.45,59.1,73.45c-12.28,0-21.47,8.62-21.47,23.83,0,14.72,8.79,23.34,21,23.34h.24Z" transform="translate(-1.96 -4.49)"/><path class="cls-1" d="M30.77,4.61V30h-.22c-2-3.87-6.48-6.45-10.84-7.14V25c6.42,1.11,11.06,6.72,11.06,14v8.06c0,6.44-5.2,14.49-13.69,14.49-5.59,0-9.66-3.07-12.08-7.4H2c2.84,5.88,8.15,9.52,14.66,9.52,6,0,11.86-3.44,14.2-8.71h.28v7.83h2.21V4.61Z" transform="translate(-1.96 -4.49)"/></svg>